<svg xmlns="http://www.w3.org/2000/svg" viewBox="0 0 600 400" width="100%" height="100%">
    <defs>
      <linearGradient id="pBg" x1="0%" y1="0%" x2="100%" y2="100%">
        <stop offset="0%" stop-color="#142B41" />
        <stop offset="100%" stop-color="#0A1622" />
      </linearGradient>
    </defs>
    <rect width="600" height="400" rx="16" fill="url(#pBg)"/>
    <path d="M0 80 H600 M0 160 H600 M0 240 H600 M0 320 H600" stroke="rgba(255,255,255,0.03)" stroke-width="1"/>
    
    <!-- Blueprint Sketch Style Geometry -->
    <g transform="translate(100, 70)" stroke="rgba(56,189,248,0.25)" stroke-width="1.5" fill="none">
      <rect x="20" y="40" width="160" height="120" stroke-dasharray="4 4"/>
      <polygon points="20,40 100,0 180,40"/>
      <line x1="20" y1="40" x2="180" y2="160"/>
      <line x1="180" y1="40" x2="20" y2="160"/>
      <circle cx="280" cy="100" r="45"/>
      <line x1="280" y1="50" x2="280" y2="150"/>
      <line x1="230" y1="100" x2="330" y2="100"/>
    </g>

    <!-- Badge -->
    <rect x="36" y="32" width="140" height="26" rx="6" fill="rgba(56,189,248,0.15)" stroke="rgba(56,189,248,0.4)" stroke-width="1"/>
    <text x="106" y="49" font-family="'Montserrat', sans-serif" font-weight="700" font-size="11" fill="#38BDF8" text-anchor="middle" letter-spacing="1">COMMERCIAL</text>

    <!-- Text overlay -->
    <rect x="24" y="270" width="552" height="106" rx="12" fill="rgba(8,18,29,0.92)" stroke="rgba(255,255,255,0.08)" stroke-width="1"/>
    <text x="44" y="304" font-family="'Poppins', sans-serif" font-weight="700" font-size="16" fill="#FFFFFF">COMMERCIAL COMPLEX BULK AGGREGATES</text>
    <text x="44" y="328" font-family="'Montserrat', sans-serif" font-weight="600" font-size="12" fill="#38BDF8">📍 Neelambur, Coimbatore</text>
    <text x="44" y="354" font-family="'Inter', sans-serif" font-weight="400" font-size="12.5" fill="#94A3B8">High-volume 20mm blue metal and river sand transport using 10-wheel tippers for multi-floor RCC structure.</text>
  </svg>